<?xml version="1.0" encoding="utf-8"?>
<svg xmlns="http://www.w3.org/2000/svg" xmlns:xlink="http://www.w3.org/1999/xlink" style="margin: auto; background: none; display: block; shape-rendering: auto;" width="200px" height="200px" viewBox="0 0 100 100" preserveAspectRatio="xMidYMid">
<g transform="rotate(0 50 50)">
  <rect x="48.5" y="23.5" rx="1.5" ry="2.09" width="3" height="11" fill="#4382ff">
    <animate attributeName="opacity" values="1;0" keyTimes="0;1" dur="0.9174311926605504s" begin="-0.860091743119266s" repeatCount="indefinite"></animate>
  </rect>
</g><g transform="rotate(22.5 50 50)">
  <rect x="48.5" y="23.5" rx="1.5" ry="2.09" width="3" height="11" fill="#4382ff">
    <animate attributeName="opacity" values="1;0" keyTimes="0;1" dur="0.9174311926605504s" begin="-0.8027522935779816s" repeatCount="indefinite"></animate>
  </rect>
</g><g transform="rotate(45 50 50)">
  <rect x="48.5" y="23.5" rx="1.5" ry="2.09" width="3" height="11" fill="#4382ff">
    <animate attributeName="opacity" values="1;0" keyTimes="0;1" dur="0.9174311926605504s" begin="-0.7454128440366972s" repeatCount="indefinite"></animate>
  </rect>
</g><g transform="rotate(67.5 50 50)">
  <rect x="48.5" y="23.5" rx="1.5" ry="2.09" width="3" height="11" fill="#4382ff">
    <animate attributeName="opacity" values="1;0" keyTimes="0;1" dur="0.9174311926605504s" begin="-0.6880733944954128s" repeatCount="indefinite"></animate>
  </rect>
</g><g transform="rotate(90 50 50)">
  <rect x="48.5" y="23.5" rx="1.5" ry="2.09" width="3" height="11" fill="#4382ff">
    <animate attributeName="opacity" values="1;0" keyTimes="0;1" dur="0.9174311926605504s" begin="-0.6307339449541284s" repeatCount="indefinite"></animate>
  </rect>
</g><g transform="rotate(112.5 50 50)">
  <rect x="48.5" y="23.5" rx="1.5" ry="2.09" width="3" height="11" fill="#4382ff">
    <animate attributeName="opacity" values="1;0" keyTimes="0;1" dur="0.9174311926605504s" begin="-0.573394495412844s" repeatCount="indefinite"></animate>
  </rect>
</g><g transform="rotate(135 50 50)">
  <rect x="48.5" y="23.5" rx="1.5" ry="2.09" width="3" height="11" fill="#4382ff">
    <animate attributeName="opacity" values="1;0" keyTimes="0;1" dur="0.9174311926605504s" begin="-0.5160550458715596s" repeatCount="indefinite"></animate>
  </rect>
</g><g transform="rotate(157.5 50 50)">
  <rect x="48.5" y="23.5" rx="1.5" ry="2.09" width="3" height="11" fill="#4382ff">
    <animate attributeName="opacity" values="1;0" keyTimes="0;1" dur="0.9174311926605504s" begin="-0.4587155963302752s" repeatCount="indefinite"></animate>
  </rect>
</g><g transform="rotate(180 50 50)">
  <rect x="48.5" y="23.5" rx="1.5" ry="2.09" width="3" height="11" fill="#4382ff">
    <animate attributeName="opacity" values="1;0" keyTimes="0;1" dur="0.9174311926605504s" begin="-0.4013761467889908s" repeatCount="indefinite"></animate>
  </rect>
</g><g transform="rotate(202.5 50 50)">
  <rect x="48.5" y="23.5" rx="1.5" ry="2.09" width="3" height="11" fill="#4382ff">
    <animate attributeName="opacity" values="1;0" keyTimes="0;1" dur="0.9174311926605504s" begin="-0.3440366972477064s" repeatCount="indefinite"></animate>
  </rect>
</g><g transform="rotate(225 50 50)">
  <rect x="48.5" y="23.5" rx="1.5" ry="2.09" width="3" height="11" fill="#4382ff">
    <animate attributeName="opacity" values="1;0" keyTimes="0;1" dur="0.9174311926605504s" begin="-0.286697247706422s" repeatCount="indefinite"></animate>
  </rect>
</g><g transform="rotate(247.5 50 50)">
  <rect x="48.5" y="23.5" rx="1.5" ry="2.09" width="3" height="11" fill="#4382ff">
    <animate attributeName="opacity" values="1;0" keyTimes="0;1" dur="0.9174311926605504s" begin="-0.2293577981651376s" repeatCount="indefinite"></animate>
  </rect>
</g><g transform="rotate(270 50 50)">
  <rect x="48.5" y="23.5" rx="1.5" ry="2.09" width="3" height="11" fill="#4382ff">
    <animate attributeName="opacity" values="1;0" keyTimes="0;1" dur="0.9174311926605504s" begin="-0.1720183486238532s" repeatCount="indefinite"></animate>
  </rect>
</g><g transform="rotate(292.5 50 50)">
  <rect x="48.5" y="23.5" rx="1.5" ry="2.09" width="3" height="11" fill="#4382ff">
    <animate attributeName="opacity" values="1;0" keyTimes="0;1" dur="0.9174311926605504s" begin="-0.1146788990825688s" repeatCount="indefinite"></animate>
  </rect>
</g><g transform="rotate(315 50 50)">
  <rect x="48.5" y="23.5" rx="1.5" ry="2.09" width="3" height="11" fill="#4382ff">
    <animate attributeName="opacity" values="1;0" keyTimes="0;1" dur="0.9174311926605504s" begin="-0.0573394495412844s" repeatCount="indefinite"></animate>
  </rect>
</g><g transform="rotate(337.5 50 50)">
  <rect x="48.5" y="23.5" rx="1.5" ry="2.09" width="3" height="11" fill="#4382ff">
    <animate attributeName="opacity" values="1;0" keyTimes="0;1" dur="0.9174311926605504s" begin="0s" repeatCount="indefinite"></animate>
  </rect>
</g>
<!-- [ldio] generated by https://loading.io/ --></svg>